<?xml version="1.0" encoding="UTF-8"?> <svg xmlns="http://www.w3.org/2000/svg" xmlns:xlink="http://www.w3.org/1999/xlink" width="322px" height="82px" viewBox="0 0 322 82" version="1.1"><defs><polygon id="path-1" points="0 82 322 82 322 0 0 0"></polygon></defs><g class="Symbols" stroke="none" stroke-width="1" fill="none" fill-rule="evenodd"><g class="Header-Copy-3" transform="translate(-263.000000, -91.000000)"><g class="Group-39" transform="translate(263.000000, 91.000000)"><path d="M162.49482,8.64994208 C162.49482,6.77722063 161.108539,5.77295312 158.884451,5.77295312 L155.44756,5.77295312 L155.44756,11.5813723 L158.971344,11.5813723 C161.194816,11.5813723 162.49482,10.3329879 162.49482,8.70438334 L162.49482,8.64994208 Z M158.826522,15.2998842 L155.44756,15.2998842 L155.44756,21 L151,21 L151,2 L159.260062,2 C164.082926,2 167,4.6873133 167,8.56856977 L167,8.62272145 C167,13.0200116 163.360975,15.2998842 158.826522,15.2998842 L158.826522,15.2998842 Z" class="Fill-1" fill="#182651"></path><path d="M175.556741,8.49814539 C173.760197,8.49814539 172.591303,9.78849757 172.249031,11.76716 L178.779263,11.76716 C178.522788,9.81725364 177.381883,8.49814539 175.556741,8.49814539 M182.942803,14.4910328 L172.306229,14.4910328 C172.733688,16.4693893 174.102468,17.5021605 176.041701,17.5021605 C177.496278,17.5021605 178.551386,17.0432871 179.748879,15.9248595 L182.229966,18.1329586 C180.803988,19.9103285 178.750664,21 175.984808,21 C171.393505,21 168,17.7600474 168,13.0575121 L168,13 C168,8.61316967 171.108432,5 175.556741,5 C180.661603,5 183,8.98577492 183,13.3441551 L183,13.4013613 C183,13.8317846 182.971401,14.0896715 182.942803,14.4910328" class="Fill-3" fill="#182651"></path><path d="M193.776754,10.3728913 C190.962545,10.3728913 189.235434,12.0478335 189.235434,15.5626634 L189.235434,21 L185,21 L185,6.2811922 L189.235434,6.2811922 L189.235434,9.24669256 C190.098989,7.21461288 191.492271,5.89651506 194,6.00638096 L194,10.3728913 L193.776754,10.3728913 Z" class="Fill-5" fill="#182651"></path><path d="M201.873519,21 C199.632085,21 197.12187,20.2780495 195,18.660671 L196.942683,15.772561 C198.675888,16.9853638 200.499007,17.6210376 201.993084,17.6210376 C203.307973,17.6210376 203.905477,17.1588414 203.905477,16.4658553 L203.905477,16.4079267 C203.905477,15.4548781 202.351777,15.1371952 200.5886,14.6173786 C198.347166,13.9820129 195.80698,12.9710357 195.80698,9.96768478 L195.80698,9.90975619 C195.80698,6.76189192 198.437078,5 201.664042,5 C203.696637,5 205.908101,5.66433001 207.641307,6.79023996 L205.908101,9.82317144 C204.324112,8.92805146 202.740441,8.37896237 201.574768,8.37896237 C200.469036,8.37896237 199.900866,8.84115857 199.900866,9.44755999 L199.900866,9.50548858 C199.900866,10.3716443 201.425232,10.77622 203.158757,11.3539653 C205.399872,12.0759157 208,13.1152409 208,15.9460386 L208,16.0039672 C208,19.4402419 205.339931,21 201.873519,21" class="Fill-7" fill="#182651"></path><path d="M220.86248,13 C220.86248,10.7350006 219.289646,8.75633819 216.972481,8.75633819 C214.572319,8.75633819 213.138109,10.6774884 213.138109,12.9424879 L213.138109,13 C213.138109,15.2649994 214.710354,17.2436618 217.027813,17.2436618 C219.427681,17.2436618 220.86248,15.3225116 220.86248,13.0575121 L220.86248,13 Z M216.972481,21 C212.39319,21 209,17.4730985 209,13.0575121 L209,13 C209,8.5844136 212.420856,5 217.027813,5 C221.60681,5 225,8.52690146 225,12.9424879 L225,13 C225,17.4155864 221.579733,21 216.972481,21 L216.972481,21 Z" class="Fill-9" fill="#182651"></path><path d="M236.975794,21 L236.975794,12.7858608 C236.975794,10.8080192 236.075531,9.79154698 234.539688,9.79154698 C233.004129,9.79154698 232.024489,10.8080192 232.024489,12.7858608 L232.024489,21 L228,21 L228,6.27492819 L232.024489,6.27492819 L232.024489,8.36268246 C232.951022,7.126678 234.142804,6 236.181178,6 C239.22631,6 241,8.08804737 241,11.4672021 L241,21 L236.975794,21 Z" class="Fill-11" fill="#182651"></path><path d="M253.202883,14.8588658 C252.51728,14.5327032 251.62068,14.3149716 250.645026,14.3149716 C248.930879,14.3149716 247.876453,15.0215122 247.876453,16.3258727 L247.876453,16.3803781 C247.876453,17.4945495 248.772772,18.1468746 250.064922,18.1468746 C251.937177,18.1468746 253.202883,17.0869187 253.202883,15.5920793 L253.202883,14.8588658 Z M253.123547,20.7283428 L253.123547,19.1523252 C252.147893,20.2662067 250.803134,21 248.852107,21 C246.188751,21 244,19.4239824 244,16.5436043 L244,16.4890989 C244,13.309521 246.34714,11.8422243 249.695817,11.8422243 C251.119912,11.8422243 252.147893,12.0869187 253.149992,12.4400441 L253.149992,12.1956396 C253.149992,10.4836484 252.122011,9.53241331 250.117813,9.53241331 C248.5885,9.53241331 247.507066,9.83132321 246.215196,10.320712 L245.213097,7.16838687 C246.768855,6.4615563 248.298167,6 250.697916,6 C255.074856,6 257,8.33648382 257,12.2768178 L257,20.7283428 L253.123547,20.7283428 Z" class="Fill-13" fill="#182651"></path><mask class="mask-2" fill="white"><use xlink:href="#path-1"></use></mask><g class="Clip-16"></g><polygon class="Fill-15" fill="#182651" mask="url(#mask-2)" points="260 21 264 21 264 1 260 1"></polygon><path d="M268.10002,21 L271.899713,21 L271.899713,6.3151718 L268.10002,6.3151718 L268.10002,21 Z M268,4.69875627 L272,4.69875627 L272,1 L268,1 L268,4.69875627 Z" class="Fill-17" fill="#182651" mask="url(#mask-2)"></path><polygon class="Fill-18" fill="#182651" mask="url(#mask-2)" points="275 21 275 18.0056132 282.727614 9.44194749 275.25091 9.44194749 275.25091 6 288 6 288 8.99408826 280.244408 17.5577539 288 17.5577539 288 21"></polygon><path d="M297.556741,8.49814539 C295.760197,8.49814539 294.591303,9.78849757 294.249031,11.76716 L300.779263,11.76716 C300.522788,9.81725364 299.381883,8.49814539 297.556741,8.49814539 M304.942803,14.4910328 L294.306229,14.4910328 C294.733688,16.4693893 296.102468,17.5021605 298.041701,17.5021605 C299.496278,17.5021605 300.551386,17.0432871 301.748879,15.9248595 L304.229966,18.1329586 C302.803988,19.9103285 300.750664,21 297.984808,21 C293.393505,21 290,17.7600474 290,13.0575121 L290,13 C290,8.61316967 293.108432,5 297.556741,5 C302.661603,5 305,8.98577492 305,13.3441551 L305,13.4013613 C305,13.8317846 304.971401,14.0896715 304.942803,14.4910328" class="Fill-19" fill="#182651" mask="url(#mask-2)"></path><path d="M317.736972,13.0823097 C317.736972,10.5566176 316.060262,8.88230969 314.042752,8.88230969 C312.024938,8.88230969 310.319424,10.5281574 310.319424,13.0823097 L310.319424,13.1392301 C310.319424,15.6649221 312.024938,17.3392301 314.042752,17.3392301 C316.060262,17.3392301 317.736972,15.6649221 317.736972,13.1392301 L317.736972,13.0823097 Z M317.680273,20.7163062 L317.680273,18.5309256 C316.62907,19.95 315.179155,21 312.934243,21 C309.381618,21 306,18.2193772 306,13.1392301 L306,13.0823097 C306,8.00276817 309.325223,5.22153979 312.934243,5.22153979 C315.236157,5.22153979 316.656964,6.27153979 317.680273,7.4916955 L317.680273,0 L322,0 L322,20.7163062 L317.680273,20.7163062 Z" class="Fill-20" fill="#182651" mask="url(#mask-2)"></path><path d="M162.49482,35.6499421 C162.49482,33.7772206 161.108539,32.7729531 158.884451,32.7729531 L155.44756,32.7729531 L155.44756,38.5813723 L158.971344,38.5813723 C161.194816,38.5813723 162.49482,37.3329879 162.49482,35.7043833 L162.49482,35.6499421 Z M158.826522,42.2998842 L155.44756,42.2998842 L155.44756,48 L151,48 L151,29 L159.260062,29 C164.082926,29 167,31.6873133 167,35.5685698 L167,35.623011 C167,40.0200116 163.360975,42.2998842 158.826522,42.2998842 L158.826522,42.2998842 Z" class="Fill-21" fill="#182651" mask="url(#mask-2)"></path><path d="M177.202883,41.8584047 C176.51728,41.5325383 175.62068,41.3151008 174.645026,41.3151008 C172.930879,41.3151008 171.876453,42.0216278 171.876453,43.325963 L171.876453,43.3804673 C171.876453,44.4943273 172.772772,45.1466399 174.064922,45.1466399 C175.937177,45.1466399 177.202883,44.0867044 177.202883,42.5921838 L177.202883,41.8584047 Z M177.123547,47.7280581 L177.123547,46.152071 C176.147893,47.2662208 174.803134,48 172.852107,48 C170.188751,48 168,46.4237229 168,43.5434005 L168,43.4888962 C168,40.3096697 170.34714,38.8421114 173.695817,38.8421114 C175.119912,38.8421114 176.147893,39.087091 177.149992,39.4399196 L177.149992,39.1955198 C177.149992,37.4838516 176.121448,36.532345 174.117813,36.532345 C172.588219,36.532345 171.507066,36.8312492 170.214915,37.3206285 L169.213097,34.1686542 C170.768855,33.4618373 172.298167,33 174.697916,33 C179.075137,33 181,35.3370185 181,39.2769864 L181,47.7280581 L177.123547,47.7280581 Z" class="Fill-22" fill="#182651" mask="url(#mask-2)"></path><path d="M191.843395,48 C187.317194,48 184,44.4443425 184,40.0575121 L184,40 C184,35.6131697 187.289001,32 191.899482,32 C194.739192,32 196.509962,32.9749532 197.915421,34.5810103 L195.301255,37.4480517 C194.345088,36.4158923 193.38922,35.7563382 191.871588,35.7563382 C189.734907,35.7563382 188.216976,37.6771825 188.216976,39.9424879 L188.216976,40 C188.216976,42.3512676 189.706714,44.2436618 192.040447,44.2436618 C193.473799,44.2436618 194.45756,43.6125578 195.497708,42.6091545 L198,45.1898589 C196.538155,46.8240603 194.851365,48 191.843395,48" class="Fill-23" fill="#182651" mask="url(#mask-2)"></path><polygon class="Fill-24" fill="#182651" mask="url(#mask-2)" points="209.306664 48 205.529951 41.9999708 204.100481 43.5345425 204.100481 48 200 48 200 28 204.100481 28 204.100481 38.6575274 208.901739 33.3148795 213.811207 33.3148795 208.308597 39.0959765 214 48"></polygon><path d="M224.202883,41.8584047 C223.51728,41.5325383 222.62068,41.3151008 221.645026,41.3151008 C219.930879,41.3151008 218.876453,42.0216278 218.876453,43.325963 L218.876453,43.3804673 C218.876453,44.4943273 219.772772,45.1466399 221.064922,45.1466399 C222.937177,45.1466399 224.202883,44.0867044 224.202883,42.5921838 L224.202883,41.8584047 Z M224.123547,47.7280581 L224.123547,46.152071 C223.147893,47.2662208 221.803134,48 219.852107,48 C217.188751,48 215,46.4237229 215,43.5434005 L215,43.4888962 C215,40.3096697 217.34714,38.8421114 220.695817,38.8421114 C222.119912,38.8421114 223.147893,39.087091 224.149992,39.4399196 L224.149992,39.1955198 C224.149992,37.4838516 223.121448,36.532345 221.117813,36.532345 C219.5885,36.532345 218.507066,36.8312492 217.214915,37.3206285 L216.213097,34.1686542 C217.768855,33.4618373 219.298167,33 221.697916,33 C226.075137,33 228,35.3370185 228,39.2769864 L228,47.7280581 L224.123547,47.7280581 Z" class="Fill-25" fill="#182651" mask="url(#mask-2)"></path><path d="M242.736972,39.0624755 C242.736972,37.0001507 241.117264,35.5595672 239.014251,35.5595672 C236.911237,35.5595672 235.319727,37.0001507 235.319727,39.0624755 L235.319727,39.1188331 C235.319727,41.2088846 236.911237,42.62144 239.014251,42.62144 C241.117264,42.62144 242.736972,41.1805551 242.736972,39.1188331 L242.736972,39.0624755 Z M238.502445,52 C236.030434,52 233.699716,51.4346162 231.767406,50.4180706 L233.245215,47.1978542 C234.808224,48.0736566 236.37093,48.5817787 238.389047,48.5817787 C241.344666,48.5817787 242.736972,47.1695247 242.736972,44.4577318 L242.736972,43.7232754 C241.458366,45.2482445 240.065757,46.1807058 237.763843,46.1807058 C234.211522,46.1807058 231,43.6099575 231,39.1188331 L231,39.0624755 C231,34.5427202 234.268221,32 237.763843,32 C240.122759,32 241.515065,32.9891203 242.680273,34.2600283 L242.680273,32.2823905 L247,32.2823905 L247,44.0056659 C247,49.7119436 244.158082,52 238.502445,52 L238.502445,52 Z" class="Fill-26" fill="#182651" mask="url(#mask-2)"></path><path d="M249.10002,48 L252.899713,48 L252.899713,33.3146649 L249.10002,33.3146649 L249.10002,48 Z M249,31.6988103 L253,31.6988103 L253,28 L249,28 L249,31.6988103 Z" class="Fill-27" fill="#182651" mask="url(#mask-2)"></path><path d="M266.975794,48 L266.975794,39.7858608 C266.975794,37.8080192 266.075531,36.7909608 264.539971,36.7909608 C263.004129,36.7909608 262.024489,37.8080192 262.024489,39.7858608 L262.024489,48 L258,48 L258,33.2746351 L262.024489,33.2746351 L262.024489,35.3626825 C262.951022,34.126678 264.142804,33 266.181178,33 C269.22631,33 271,35.0880474 271,38.4672021 L271,48 L266.975794,48 Z" class="Fill-28" fill="#182651" mask="url(#mask-2)"></path><path d="M285.736972,39.0624755 C285.736972,37.0001507 284.117264,35.5595672 282.014251,35.5595672 C279.911237,35.5595672 278.319727,37.0001507 278.319727,39.0624755 L278.319727,39.1188331 C278.319727,41.2088846 279.911237,42.62144 282.014251,42.62144 C284.117264,42.62144 285.736972,41.1805551 285.736972,39.1188331 L285.736972,39.0624755 Z M281.502445,52 C279.030434,52 276.699716,51.4346162 274.767406,50.4180706 L276.245215,47.1978542 C277.808224,48.0736566 279.37093,48.5817787 281.389047,48.5817787 C284.344362,48.5817787 285.736972,47.1695247 285.736972,44.4577318 L285.736972,43.7232754 C284.458366,45.2482445 283.065757,46.1807058 280.763843,46.1807058 C277.211522,46.1807058 274,43.6099575 274,39.1188331 L274,39.0624755 C274,34.5427202 277.268221,32 280.763843,32 C283.122759,32 284.515065,32.9891203 285.680273,34.2600283 L285.680273,32.2823905 L290,32.2823905 L290,44.0056659 C290,49.7119436 287.158082,52 281.502445,52 L281.502445,52 Z" class="Fill-29" fill="#182651" mask="url(#mask-2)"></path><path d="M158.578053,74 C155.516158,74 152.425914,72.9722313 150,70.8888362 L152.628356,67.8612453 C154.44756,69.305693 156.353965,70.2223276 158.664638,70.2223276 C160.483842,70.2223276 161.581404,69.527665 161.581404,68.3890585 L161.581404,68.3333432 C161.581404,67.2501556 160.888418,66.6944848 157.509456,65.8611268 C153.436891,64.8612157 150.808843,63.7777317 150.808843,59.9167827 L150.808843,59.8613638 C150.808843,56.3332247 153.754882,54 157.884759,54 C160.83049,54 163.343296,54.8890733 165.393599,56.4722165 L163.083234,59.6948108 C161.292686,58.5001926 159.530794,57.7779688 157.82683,57.7779688 C156.122867,57.7779688 155.227439,58.5280503 155.227439,59.4722461 L155.227439,59.5279614 C155.227439,60.8055597 156.094211,61.2222387 159.588722,62.0837507 C163.689635,63.1115194 166,64.5278132 166,67.9166642 L166,67.9723795 C166,71.8336248 162.93872,74 158.578053,74" class="Fill-30" fill="#182651" mask="url(#mask-2)"></path><path d="M176.093075,74.9231028 C174.917747,77.8857989 173.655845,79 171.04669,79 C169.469695,79 168.293755,78.6198028 167.17594,77.9942609 L168.638217,75.0045943 C169.211502,75.3308505 169.928569,75.5753251 170.501855,75.5753251 C171.247371,75.5753251 171.648732,75.358111 172.021644,74.6241071 L166,60 L170.616573,60 L174.114718,69.921378 L177.469389,60 L182,60 L176.093075,74.9231028 Z" class="Fill-31" fill="#182651" mask="url(#mask-2)"></path><path d="M188.873519,75 C186.632085,75 184.12187,74.2780495 182,72.660671 L183.942683,69.772561 C185.675888,70.9853638 187.499007,71.6210376 188.993084,71.6210376 C190.307973,71.6210376 190.905477,71.1588414 190.905477,70.4658553 L190.905477,70.4079267 C190.905477,69.4548781 189.351777,69.1371952 187.588281,68.6173786 C185.347166,67.9820129 182.80698,66.9710357 182.80698,63.9676848 L182.80698,63.9097562 C182.80698,60.7618919 185.437078,59 188.664042,59 C190.696637,59 192.908101,59.66433 194.641307,60.79024 L192.908101,63.8231714 C191.324112,62.9280515 189.740441,62.3789624 188.574768,62.3789624 C187.469036,62.3789624 186.900866,62.8411586 186.900866,63.44756 L186.900866,63.5054886 C186.900866,64.3716443 188.425232,64.77622 190.158438,65.3539653 C192.399872,66.0759157 195,67.1152409 195,69.9460386 L195,70.0039672 C195,73.4402419 192.339931,75 188.873519,75" class="Fill-32" fill="#182651" mask="url(#mask-2)"></path><path d="M201.789424,74 C199.342255,74 197.684324,72.9692134 197.684324,69.5151273 L197.684324,62.4384269 L196,62.4384269 L196,58.8170014 L197.684324,58.8170014 L197.684324,55 L201.684137,55 L201.684137,58.8170014 L205,58.8170014 L205,62.4384269 L201.684137,62.4384269 L201.684137,68.8181278 C201.684137,69.7936299 202.078896,70.2668168 202.973982,70.2668168 C203.710716,70.2668168 204.368554,70.0721325 204.947496,69.7377511 L204.947496,73.1365528 C204.105475,73.6659158 203.131774,74 201.789424,74" class="Fill-33" fill="#182651" mask="url(#mask-2)"></path><path d="M213.556894,62.4981454 C211.760314,62.4981454 210.591396,63.7888035 210.249118,65.76716 L216.779482,65.76716 C216.523001,63.8172536 215.382074,62.4981454 213.556894,62.4981454 M220.943106,68.4910328 L210.306316,68.4910328 C210.733784,70.4693893 212.102592,71.5021605 214.041864,71.5021605 C215.496471,71.5021605 216.5516,71.0432871 217.749118,69.9248595 L220.230254,72.1329586 C218.804247,73.9103285 216.750882,75 213.98497,75 C209.393574,75 206,71.7600474 206,67.0575121 L206,67 C206,62.6131697 209.108495,59 213.556894,59 C218.66186,59 221,62.9857749 221,67.3441551 L221,67.4013613 C221,67.8317846 220.971705,68.0896715 220.943106,68.4910328" class="Fill-34" fill="#182651" mask="url(#mask-2)"></path><path d="M241.725897,74 L241.725897,65.7858608 C241.725897,63.8080192 240.82626,62.791547 239.223471,62.791547 C237.620983,62.791547 236.636751,63.8080192 236.636751,65.7858608 L236.636751,74 L232.363249,74 L232.363249,65.7858608 C232.363249,63.8080192 231.463311,62.791547 229.860823,62.791547 C228.258034,62.791547 227.274103,63.8080192 227.274103,65.7858608 L227.274103,74 L223,74 L223,59.2749282 L227.274103,59.2749282 L227.274103,61.3626825 C228.258034,60.126678 229.551544,59 231.716194,59 C233.684657,59 235.174653,59.8520429 235.962098,61.335131 C237.283506,59.8244915 238.858397,59 240.910854,59 C244.087933,59 246,60.8685152 246,64.4120992 L246,74 L241.725897,74 Z" class="Fill-35" fill="#182651" mask="url(#mask-2)"></path><path d="M253.873519,75 C251.632085,75 249.12187,74.2780495 247,72.660671 L248.942683,69.772561 C250.675888,70.9853638 252.499007,71.6210376 253.993084,71.6210376 C255.307973,71.6210376 255.905477,71.1588414 255.905477,70.4658553 L255.905477,70.4079267 C255.905477,69.4548781 254.351777,69.1371952 252.588281,68.6173786 C250.347166,67.9820129 247.80698,66.9710357 247.80698,63.9676848 L247.80698,63.9097562 C247.80698,60.7618919 250.437078,59 253.664042,59 C255.696637,59 257.908101,59.66433 259.641307,60.79024 L257.908101,63.8231714 C256.324112,62.9280515 254.740441,62.3789624 253.574768,62.3789624 C252.469036,62.3789624 251.900866,62.8411586 251.900866,63.44756 L251.900866,63.5054886 C251.900866,64.3716443 253.425232,64.77622 255.158438,65.3539653 C257.399872,66.0759157 260,67.1152409 260,69.9460386 L260,70.0039672 C260,73.4402419 257.339931,75 253.873519,75" class="Fill-36" fill="#182651" mask="url(#mask-2)"></path><path d="M115.127508,50.5087772 C114.428327,52.3327856 112.934933,53.7650186 111.15436,54.8818619 C107.351315,57.0946619 104.537611,57.5219447 103.260198,57.5890806 L67.9600451,57.5890806 L67.9600451,54.1299396 L79.0361215,54.1299396 C94.2006345,54.1299396 104.983871,47.1290057 108.440453,35.7138104 C109.262371,36.8598952 110.168595,38.0012058 111.163893,39.1308796 C115.013112,43.5006821 116.346829,47.3286232 115.127508,50.5087772 L115.127508,50.5087772 Z M17.2674827,57.5890806 L17.2674827,54.1299396 L28.3435591,54.1299396 C37.1165385,54.1299396 44.4217442,51.7852548 49.6925624,47.6004491 L49.6925624,57.5890806 L17.2674827,57.5890806 Z M17.2674827,17.5059518 L28.552092,17.5059518 C38.9149859,17.5059518 40.4620022,23.7376572 40.4620022,27.4522131 L40.4620022,27.6607821 C40.4620022,33.7027166 35.9097288,37.6070434 28.8645935,37.6070434 L17.2674827,37.6070434 L17.2674827,17.5059518 Z M67.9600451,17.5059518 L79.2446544,17.5059518 C89.6075483,17.5059518 91.1545646,23.7376572 91.1545646,27.4522131 L91.1545646,27.6607821 C91.1545646,33.7027166 86.6022912,37.6070434 79.5571559,37.6070434 L67.9600451,37.6070434 L67.9600451,17.5059518 Z M125.330725,28.6385795 C122.556939,25.1472132 121.682889,22.0885006 122.733299,19.5480773 C124.395008,15.5294703 130.571157,13.8832975 133.149219,13.3623227 C133.510875,13.2892192 133.81861,13.0531991 133.982755,12.7228904 C134.1469,12.3919849 134.149582,12.0040884 133.989607,11.6713927 L128.71432,0.678109328 C128.484636,0.200101568 127.970454,-0.0705307905 127.444951,0.0159999525 C116.425178,1.81912161 108.815514,5.90128401 105.187936,11.8993564 C100.316309,4.87276169 91.6943669,0.773889909 80.5989267,0.773889909 L50.8049365,0.773889909 C50.1903602,0.773889909 49.6925624,1.2727844 49.6925624,1.88804782 L49.6925624,6.82865487 C44.730075,2.94551318 37.9742046,0.773889909 29.9063643,0.773889909 L0.112374109,0.773889909 C-0.502202159,0.773889909 -1,1.2727844 -1,1.88804782 L-1,80.8861405 C-1,81.5014039 -0.502202159,82 0.112374109,82 L16.1551086,82 C16.769387,82 17.2674827,81.5014039 17.2674827,80.8861405 L17.2674827,74.1119768 L49.6925624,74.1119768 L49.6925624,80.8861405 C49.6925624,81.5014039 50.1903602,82 50.8049365,82 L66.847671,82 C67.4619493,82 67.9600451,81.5014039 67.9600451,80.8861405 L67.9600451,74.1119768 L95.1899742,74.1119768 L95.1902721,74.1116784 C95.2239353,74.1116784 95.2543215,74.1119768 95.2885805,74.1119768 C99.1139677,74.1119768 106.616386,73.8634247 113.881672,72.1975587 C122.501529,70.2213756 128.389903,66.8636844 131.383839,62.2169835 C140.209548,48.5194652 135.37784,41.2834064 125.330725,28.6385795 L125.330725,28.6385795 Z" class="Fill-37" fill="#182651" mask="url(#mask-2)"></path><path d="M273.968901,64 L273.777912,61.0588749 C273.758874,60.6728722 273.758874,60.1949503 273.739533,59.6617604 L273.682418,59.6617604 C273.548846,60.103031 273.395934,60.6911979 273.243324,61.1507941 L272.307418,63.9264064 L271.23794,63.9264064 L270.302335,61.0772005 C270.206841,60.6911979 270.053929,60.103031 269.939396,59.6617604 L269.881978,59.6617604 C269.881978,60.1213567 269.86294,60.5992786 269.843901,61.0588749 L269.652912,64 L268.65989,64 L269.041868,59 L270.588819,59 L271.486346,61.4448775 C271.600879,61.8308802 271.696374,62.1985572 271.829945,62.7131305 L271.848984,62.7131305 C271.982857,62.2538251 272.09739,61.8308802 272.211923,61.4632032 L273.109451,59 L274.598984,59 L275,64 L273.968901,64 Z M268.354368,59 L268.354368,59.8272733 L266.692885,59.8272733 L266.692885,64 L265.661484,64 L265.661484,59.8272733 L264,59.8272733 L264,59 L268.354368,59 Z" class="Fill-38" fill="#182651" mask="url(#mask-2)"></path></g></g></g></svg> 