<svg viewBox="0 0 256 256" xmlns="http://www.w3.org/2000/svg">
  <rect width="256" height="256" fill="#FFFFFF"/>
  
  <!-- Geometric wireframe sphere based on your image -->
  <g stroke="#000000" stroke-width="2.5" fill="none" stroke-linecap="round" stroke-linejoin="round" transform="translate(128,128)">
    <!-- Main outer circle -->
    <circle r="110" opacity="1"/>
    
    <!-- Geodesic triangular pattern - creating the icosahedral wireframe -->
    <!-- Top cap triangles -->
    <path d="M 0,-110 L 52,-96 L -52,-96 Z"/>
    <path d="M 0,-110 L 96,-52 L 52,-96 Z"/>
    <path d="M 0,-110 L -52,-96 L -96,-52 Z"/>
    <path d="M 0,-110 L 96,52 L 96,-52 Z"/>
    <path d="M 0,-110 L -96,-52 L -96,52 Z"/>
    
    <!-- Upper ring triangles -->
    <path d="M 52,-96 L 110,0 L 96,-52 Z"/>
    <path d="M 52,-96 L 96,-52 L 96,52 Z"/>
    <path d="M -52,-96 L -96,-52 L -110,0 Z"/>
    <path d="M -52,-96 L -96,52 L -96,-52 Z"/>
    
    <!-- Equatorial triangles -->
    <path d="M 96,-52 L 110,0 L 96,52 Z"/>
    <path d="M 96,52 L 110,0 L 52,96 Z"/>
    <path d="M 52,96 L 110,0 L 0,110 Z"/>
    <path d="M 0,110 L -52,96 L 52,96 Z"/>
    <path d="M -52,96 L -110,0 L 0,110 Z"/>
    <path d="M -96,52 L -110,0 L -52,96 Z"/>
    <path d="M -96,-52 L -110,0 L -96,52 Z"/>
    
    <!-- Lower triangles -->
    <path d="M 52,96 L 0,110 L -52,96 Z"/>
    <path d="M 52,96 L 96,52 L 0,110 Z"/>
    <path d="M -52,96 L 0,110 L -96,52 Z"/>
    
    <!-- Bottom cap triangles -->
    <path d="M 0,110 L 52,96 L -52,96 Z"/>
    <path d="M 0,110 L 96,52 L 52,96 Z"/>
    <path d="M 0,110 L -52,96 L -96,52 Z"/>
    
    <!-- Additional structural lines for icosahedral geodesic -->
    <path d="M 52,-96 L 0,-110 L -52,-96"/>
    <path d="M 96,-52 L 52,-96 L 110,0"/>
    <path d="M -96,-52 L -52,-96 L -110,0"/>
    <path d="M 96,52 L 52,96 L 110,0"/>
    <path d="M -96,52 L -52,96 L -110,0"/>
    
    <!-- Central core pattern -->
    <circle r="55" opacity="0.6"/>
    <circle r="35" opacity="0.4"/>
    <circle r="18" opacity="0.3"/>
  </g>
</svg>
